<svg width="523" height="539" viewBox="0 0 523 539" fill="none" xmlns="http://www.w3.org/2000/svg">
<path d="M319.194 140.865L234.687 10.7534C229.287 2.42965 219.141 -1.46671 209.553 1.09919C199.966 3.67067 193.129 12.1174 192.615 22.0288L184.498 176.966C183.978 186.867 177.141 195.313 167.566 197.879L17.7039 238.033C8.11116 240.594 1.2576 249.041 0.737711 258.952C0.217825 268.863 6.14342 277.987 15.4119 281.536L160.259 337.131C169.522 340.686 175.448 349.798 174.928 359.709L167.688 497.642L329.172 149.189C325.102 147.456 321.631 144.56 319.194 140.865Z" fill="#DC0B09"/>
<path d="M517.912 146.885C524.139 139.176 524.704 128.337 519.309 120.024C513.915 111.712 503.786 107.81 494.21 110.365L344.326 150.513C339.272 151.827 333.922 151.357 329.176 149.183L167.693 497.636L166.781 514.635C166.256 524.547 172.176 533.664 181.439 537.22C190.707 540.77 201.206 537.958 207.444 530.243L305.077 409.674C311.321 401.965 321.819 399.153 331.077 402.703L475.93 458.309C485.187 461.881 495.697 459.08 501.946 451.371C508.196 443.662 508.772 432.806 503.372 424.477L418.854 294.343C413.454 286.025 414.024 275.169 420.263 267.46L517.912 146.885Z" fill="#E0342A"/>
<path d="M517.008 146.885C523.236 139.176 523.8 128.337 518.406 120.024C513.011 111.712 502.882 107.81 493.306 110.365L343.422 150.513C338.368 151.827 333.018 151.357 328.272 149.183L166.789 497.636L165.878 514.635C165.352 524.547 171.272 533.664 180.535 537.22C189.804 540.77 200.302 537.958 206.541 530.243L304.173 409.674C310.417 401.965 320.916 399.153 330.173 402.703L475.026 458.309C484.283 461.881 494.793 459.08 501.043 451.371C507.292 443.662 507.868 432.806 502.468 424.477L417.95 294.343C412.55 286.025 413.12 275.169 419.359 267.46L517.008 146.885Z" fill="#C70A08"/>
</svg>
